<?xml version="1.0" standalone="yes"?>
<svg xmlns="http://www.w3.org/2000/svg" width="462" height="462">
<path style="fill:#none; stroke:none;" d="M0 0L0 462L462 462L462 0L0 0z"/>
<path style="fill:#01a5ef; stroke:none;" d="M358 86L358 87L362 87L358 86z"/>
<path style="fill:#e2026c; stroke:none;" d="M95 87.5293C72.7876 92.6555 68.2949 123.929 87.0008 136.031C100.867 145.002 127.027 140 143 140C149.703 140 157.503 141.078 164 139.211C185.64 132.991 188.86 101.912 169.999 90.4792C162.889 86.1694 154.975 87 147 87C130.746 87 110.838 83.8743 95 87.5293z"/>
<path style="fill:#01a5ef; stroke:none;" d="M224 87.5293C201.612 92.696 197.515 123.685 216.001 135.892C229.814 145.013 255.994 140 272 140C278.703 140 286.503 141.078 293 139.211C314.64 132.991 317.86 101.912 298.999 90.4792C291.889 86.1694 283.975 87 276 87C259.746 87 239.838 83.8743 224 87.5293z"/>
<path style="fill:#f58123; stroke:none;" d="M353 87L354 88L353 87z"/>
<path style="fill:#fdfdfe; stroke:none;" d="M354 87.5178C320.26 94.7293 332.288 146.685 366 139.482C399.941 132.23 387.811 80.2912 354 87.5178z"/>
<path style="fill:#f58123; stroke:none;" d="M366 87L367 88L366 87M350 88L351 89L350 88M369 88L370 89L369 88z"/>
<path style="fill:#01a5ef; stroke:none;" d="M344 91L345 92L344 91z"/>
<path style="fill:#f58123; stroke:none;" d="M375 91L376 92L375 91M343 92L344 93L343 92M338 97L339 98L338 97M381 97L382 98L381 97z"/>
<path style="fill:#01a5ef; stroke:none;" d="M382 98L383 99L382 98z"/>
<path style="fill:#f58123; stroke:none;" d="M336 100L337 101L336 100M383 100L384 101L383 100M335 102L336 103L335 102M384 102L385 103L384 102z"/>
<path style="fill:#01a5ef; stroke:none;" d="M385 104L386 105L385 104z"/>
<path style="fill:#f58123; stroke:none;" d="M334 105L335 106L334 105z"/>
<path style="fill:#01a5ef; stroke:none;" d="M333 108L334 109L333 108z"/>
<path style="fill:#f58123; stroke:none;" d="M386.333 108.667L386.667 109.333L386.333 108.667M333.333 109.667L333.667 110.333L333.333 109.667M333.333 116.667L333.667 117.333L333.333 116.667M386 117L387 118L386 117z"/>
<path style="fill:#01a5ef; stroke:none;" d="M333 118L334 119L333 118M386 118L387 119L386 118z"/>
<path style="fill:#f58123; stroke:none;" d="M334 121L335 122L334 121z"/>
<path style="fill:#01a5ef; stroke:none;" d="M385 122L386 123L385 122z"/>
<path style="fill:#f58123; stroke:none;" d="M335 124L336 125L335 124M384 124L385 125L384 124M336 126L337 127L336 126M383 126L384 127L383 126z"/>
<path style="fill:#01a5ef; stroke:none;" d="M382 128L383 129L382 128z"/>
<path style="fill:#f58123; stroke:none;" d="M338 129L339 130L338 129M381 129L382 130L381 129M343 134L344 135L343 134z"/>
<path style="fill:#01a5ef; stroke:none;" d="M344 135L345 136L344 135z"/>
<path style="fill:#f58123; stroke:none;" d="M375 135L376 136L375 135z"/>
<path style="fill:#01a5ef; stroke:none;" d="M372 137L373 138L372 137z"/>
<path style="fill:#f58123; stroke:none;" d="M350 138L351 139L350 138M369 138L370 139L369 138M353 139L354 140L353 139M366 139L367 140L366 139z"/>
<path style="fill:#01a5ef; stroke:none;" d="M367 139L368 140L367 139M358 140L358 141L362 141L358 140M170 165.529C148.089 170.586 143.804 201.843 162.004 213.891C175.79 223.018 202.063 218 218 218C224.703 218 232.503 219.078 239 217.211C261.093 210.861 264.186 180.071 245 168.479C237.88 164.177 229.983 165 222 165C205.746 165 185.838 161.874 170 165.529M304 242L304 243L363 243L344 242L304 242z"/>
<path style="fill:#f58123; stroke:none;" d="M95 243.529C72.6202 248.667 68.4976 279.674 87.0008 291.892C94.1477 296.611 101.817 296 110 296C126.437 296 147.072 299.345 163 295.239C185.125 289.536 189.48 258.288 169.999 246.479C162.889 242.169 154.975 243 147 243C130.734 243 110.854 239.89 95 243.529M299 243L300 244L299 243z"/>
<path style="fill:#fdfdfe; stroke:none;" d="M300 243.519C277.16 248.474 272.98 279.766 292 292.031C299.121 296.622 306.906 296 315 296C331.136 296 351.362 299.27 367 295.239C389.179 289.522 393.716 258.293 373.999 246.482C366.957 242.264 358.874 243 351 243C334.93 243 315.706 240.111 300 243.519z"/>
<path style="fill:#f58123; stroke:none;" d="M366 243L367 244L366 243z"/>
<path style="fill:#01a5ef; stroke:none;" d="M367 243L368 244L367 243z"/>
<path style="fill:#f58123; stroke:none;" d="M296 244L297 245L296 244z"/>
<path style="fill:#01a5ef; stroke:none;" d="M370 244L371 245L370 244M372 245L373 246L372 245z"/>
<path style="fill:#f58123; stroke:none;" d="M292 246L293 247L292 246z"/>
<path style="fill:#01a5ef; stroke:none;" d="M290 247L291 248L290 247z"/>
<path style="fill:#f58123; stroke:none;" d="M375 247L376 248L375 247M289 248L290 249L289 248M288 249L289 250L288 249M285 252L286 253L285 252z"/>
<path style="fill:#01a5ef; stroke:none;" d="M284 253L285 254L284 253z"/>
<path style="fill:#f58123; stroke:none;" d="M381 253L382 254L381 253z"/>
<path style="fill:#01a5ef; stroke:none;" d="M382 254L383 255L382 254z"/>
<path style="fill:#f58123; stroke:none;" d="M383 256L384 257L383 256M384 258L385 259L384 258z"/>
<path style="fill:#01a5ef; stroke:none;" d="M385 260L386 261L385 260M280 261L281 262L280 261z"/>
<path style="fill:#f58123; stroke:none;" d="M386.333 264.667L386.667 265.333L386.333 264.667z"/>
<path style="fill:#01a5ef; stroke:none;" d="M279 266L280 267L279 266z"/>
<path style="fill:#f58123; stroke:none;" d="M279 267L279 272L280 272L279 267z"/>
<path style="fill:#01a5ef; stroke:none;" d="M279 272L280 273L279 272z"/>
<path style="fill:#f58123; stroke:none;" d="M386 273L387 274L386 273z"/>
<path style="fill:#01a5ef; stroke:none;" d="M386 274L387 275L386 274z"/>
<path style="fill:#f58123; stroke:none;" d="M280 276L281 277L280 276z"/>
<path style="fill:#01a5ef; stroke:none;" d="M280 277L281 278L280 277z"/>
<path style="fill:#f58123; stroke:none;" d="M385 277L386 278L385 277z"/>
<path style="fill:#01a5ef; stroke:none;" d="M385 278L386 279L385 278z"/>
<path style="fill:#f58123; stroke:none;" d="M281 279L282 280L281 279M384 280L385 281L384 280M383 282L384 283L383 282M283 283L284 284L283 283M381 285L382 286L381 285M285 286L286 287L285 286M286 287L287 288L286 287M287 288L288 289L287 288M288 289L289 290L288 289z"/>
<path style="fill:#01a5ef; stroke:none;" d="M289 290L290 291L289 290z"/>
<path style="fill:#f58123; stroke:none;" d="M376 290L377 291L376 290z"/>
<path style="fill:#01a5ef; stroke:none;" d="M375 291L376 292L375 291z"/>
<path style="fill:#f58123; stroke:none;" d="M292 292L293 293L292 292M294 293L295 294L294 293M296 294L297 295L296 294M369 294L370 295L369 294z"/>
<path style="fill:#01a5ef; stroke:none;" d="M299 295L300 296L299 295z"/>
<path style="fill:#f58123; stroke:none;" d="M366 295L367 296L366 295z"/>
<path style="fill:#01a5ef; stroke:none;" d="M306 296L306 297L360 297L342 296L306 296M99.6667 320.333L100.333 320.667L99.6667 320.333z"/>
<path style="fill:#f58123; stroke:none;" d="M101.667 320.333L102.333 320.667L101.667 320.333z"/>
<path style="fill:#01a5ef; stroke:none;" d="M103.667 320.333L104.333 320.667L103.667 320.333M94 321L95 322L94 321z"/>
<path style="fill:#fdfdfe; stroke:none;" d="M95 321.529C61.813 329.188 74.9769 381.051 108 373.471C142.267 365.605 129.139 313.651 95 321.529z"/>
<path style="fill:#f58123; stroke:none;" d="M108 321L109 322L108 321z"/>
<path style="fill:#01a5ef; stroke:none;" d="M109 321L110 322L109 321z"/>
<path style="fill:#e2026c; stroke:none;" d="M299 321.529C277.1 326.583 272.829 357.6 291.015 369.612C305.079 378.902 330.759 374 347 374C353.819 374 361.363 374.891 368 373.072C389.456 367.19 393.396 336.871 374.999 324.969C367.63 320.202 359.372 321 351 321C334.746 321 314.838 317.874 299 321.529z"/>
<path style="fill:#01a5ef; stroke:none;" d="M91 322L92 323L91 322M112 322L113 323L112 322M89 323L90 324L89 323M114 323L115 324L114 323z"/>
<path style="fill:#f58123; stroke:none;" d="M86 325L87 326L86 325M117 325L118 326L117 325M123 331L124 332L123 331z"/>
<path style="fill:#01a5ef; stroke:none;" d="M79 332L80 333L79 332M124 332L125 333L124 332z"/>
<path style="fill:#f58123; stroke:none;" d="M78 334L79 335L78 334M125 334L126 335L125 334M77 336L78 337L77 336M126 336L127 337L126 336z"/>
<path style="fill:#01a5ef; stroke:none;" d="M76 338L77 339L76 338M127 338L128 339L127 338z"/>
<path style="fill:#f58123; stroke:none;" d="M127 339L128 340L127 339M75.3333 342.667L75.6667 343.333L75.3333 342.667z"/>
<path style="fill:#01a5ef; stroke:none;" d="M128 342L129 343L128 342z"/>
<path style="fill:#f58123; stroke:none;" d="M128.333 343.667L128.667 344.333L128.333 343.667M128.333 350.667L128.667 351.333L128.333 350.667M75 351L76 352L75 351z"/>
<path style="fill:#01a5ef; stroke:none;" d="M75 352L76 353L75 352M128 352L129 353L128 352z"/>
<path style="fill:#f58123; stroke:none;" d="M76 355L77 356L76 355M127 355L128 356L127 355z"/>
<path style="fill:#01a5ef; stroke:none;" d="M76 356L77 357L76 356z"/>
<path style="fill:#f58123; stroke:none;" d="M77 358L78 359L77 358z"/>
<path style="fill:#01a5ef; stroke:none;" d="M126 358L127 359L126 358z"/>
<path style="fill:#f58123; stroke:none;" d="M78 360L79 361L78 360z"/>
<path style="fill:#01a5ef; stroke:none;" d="M125 360L126 361L125 360z"/>
<path style="fill:#f58123; stroke:none;" d="M80 363L81 364L80 363M123 363L124 364L123 363M122 364L123 365L122 364M85 368L86 369L85 368M118 368L119 369L118 368z"/>
<path style="fill:#01a5ef; stroke:none;" d="M86 369L87 370L86 369M117 369L118 370L117 369z"/>
<path style="fill:#f58123; stroke:none;" d="M88 370L89 371L88 370M115 370L116 371L115 370M113 371L114 372L113 371M92 372L93 373L92 372M111 372L112 373L111 372M95 373L96 374L95 373M108 373L109 374L108 373z"/>
</svg>
