<?xml version="1.0" standalone="yes"?>
<svg xmlns="http://www.w3.org/2000/svg" width="462" height="462">
<path style="fill:none; stroke:none;" d="M0 0L0 462L462 462L462 0L0 0z"/>
<path style="fill:#e2026c; stroke:none;" d="M95 87.5293C72.7876 92.6555 68.2949 123.929 87.0008 136.031C100.867 145.002 127.027 140 143 140C149.703 140 157.503 141.078 164 139.211C185.64 132.991 188.86 101.912 169.999 90.4792C162.889 86.1694 154.975 87 147 87C130.746 87 110.838 83.8743 95 87.5293z"/>
<path style="fill:#01a5ef; stroke:none;" d="M224 87.5293C201.612 92.696 197.515 123.685 216.001 135.892C229.814 145.013 255.994 140 272 140C278.703 140 286.503 141.078 293 139.211C314.64 132.991 317.86 101.912 298.999 90.4792C291.889 86.1694 283.975 87 276 87C259.746 87 239.838 83.8743 224 87.5293z"/>
<path style="fill:#fdfdfe; stroke:none;" d="M354 87.5178C320.26 94.7293 332.288 146.685 366 139.482C399.941 132.23 387.811 80.2912 354 87.5178z"/>
<path style="fill:#01a5ef; stroke:none;" d="M367 139L368 140L367 139M358 140L358 141L362 141L358 140M170 165.529C148.089 170.586 143.804 201.843 162.004 213.891C175.79 223.018 202.063 218 218 218C224.703 218 232.503 219.078 239 217.211C261.093 210.861 264.186 180.071 245 168.479C237.88 164.177 229.983 165 222 165C205.746 165 185.838 161.874 170 165.529M304 242L304 243L363 243L344 242L304 242z"/>
<path style="fill:#f58123; stroke:none;" d="M95 243.529C72.6202 248.667 68.4976 279.674 87.0008 291.892C94.1477 296.611 101.817 296 110 296C126.437 296 147.072 299.345 163 295.239C185.125 289.536 189.48 258.288 169.999 246.479C162.889 242.169 154.975 243 147 243C130.734 243 110.854 239.89 95 243.529M299 243L300 244L299 243z"/>
<path style="fill:#fdfdfe; stroke:none;" d="M300 243.519C277.16 248.474 272.98 279.766 292 292.031C299.121 296.622 306.906 296 315 296C331.136 296 351.362 299.27 367 295.239C389.179 289.522 393.716 258.293 373.999 246.482C366.957 242.264 358.874 243 351 243C334.93 243 315.706 240.111 300 243.519z"/>
<path style="fill:#fdfdfe; stroke:none;" d="M95 321.529C61.813 329.188 74.9769 381.051 108 373.471C142.267 365.605 129.139 313.651 95 321.529z"/>
<path style="fill:#e2026c; stroke:none;" d="M299 321.529C277.1 326.583 272.829 357.6 291.015 369.612C305.079 378.902 330.759 374 347 374C353.819 374 361.363 374.891 368 373.072C389.456 367.19 393.396 336.871 374.999 324.969C367.63 320.202 359.372 321 351 321C334.746 321 314.838 317.874 299 321.529z"/>
</svg>
