<svg version="1.1" id="Layer_1" xmlns="http://www.w3.org/2000/svg" xmlns:xlink="http://www.w3.org/1999/xlink" x="0px" y="0px"
	 width="100%" viewBox="0 0 462 462" enable-background="new 0 0 462 462" xml:space="preserve">
<path fill="#001627" opacity="1.000000" stroke="none" 
	d="
M1.000000,332.000000 
	C1.000000,265.645782 1.000000,199.291550 1.390066,132.376251 
	C2.181800,130.805283 2.841267,129.820831 2.943914,128.781418 
	C3.692072,121.205414 4.120822,113.593033 5.042728,106.040016 
	C7.000899,89.997063 10.335362,74.218025 17.313997,59.556259 
	C29.940378,33.028847 51.416611,16.886415 79.557037,10.316889 
	C95.438675,6.609238 111.897598,5.386096 128.079437,2.931505 
	C129.452362,2.723250 130.696198,1.663940 132.000000,0.999999 
	C198.354233,1.000000 264.708466,1.000000 331.623779,1.390058 
	C333.194672,2.181785 334.178986,2.841265 335.218262,2.943900 
	C342.793335,3.691959 350.412842,4.070974 357.955078,5.052699 
	C373.960571,7.136028 389.791748,10.258549 404.440704,17.304607 
	C430.880768,30.022089 447.167908,51.372070 453.690521,79.565727 
	C457.366333,95.454391 458.614014,111.902122 461.067902,128.080948 
	C461.276093,129.453415 462.335876,130.696701 463.000000,132.000000 
	C463.000000,198.354233 463.000000,264.708466 462.609802,331.623535 
	C461.822021,333.027710 461.162445,333.842468 461.066986,334.718658 
	C459.991852,344.585571 459.261597,354.496826 457.931885,364.327606 
	C455.874298,379.539429 452.162506,394.382812 444.895538,408.002808 
	C431.832520,432.485840 411.134247,447.611145 384.436188,453.695648 
	C368.531403,457.320374 352.097931,458.614075 335.919189,461.068085 
	C334.546692,461.276276 333.303345,462.335938 332.000000,463.000000 
	C265.645782,463.000000 199.291550,463.000000 132.376404,462.609863 
	C130.972351,461.822083 130.157730,461.162445 129.281647,461.066986 
	C119.415901,459.991913 109.505692,459.262299 99.676163,457.932007 
	C84.466827,455.873566 69.625992,452.163177 56.005497,444.900574 
	C31.510303,431.839478 16.440104,411.087250 10.307900,384.428436 
	C6.652147,368.535614 5.384856,352.096008 2.931484,335.919281 
	C2.723330,334.546783 1.663937,333.303375 1.000000,332.000000 
M336.500397,243.585541 
	C326.845490,243.588104 317.188171,243.452774 307.536255,243.624680 
	C292.054260,243.900421 280.423706,255.427444 280.344421,270.337982 
	C280.264465,285.373352 292.143707,297.103485 307.849121,297.216431 
	C325.326843,297.342102 342.806732,297.331268 360.284668,297.218719 
	C376.074249,297.117065 387.910492,285.592255 387.954895,270.527832 
	C387.999390,255.448700 376.240479,243.870956 360.471985,243.610184 
	C352.816742,243.483582 345.157745,243.586533 336.500397,243.585541 
M351.459442,321.428070 
	C335.822327,321.534302 320.154022,321.066803 304.557312,321.915558 
	C290.277313,322.692657 279.586151,335.526917 280.324463,349.318451 
	C281.104675,363.893463 292.351562,375.004181 306.881653,375.137573 
	C325.018585,375.304138 343.159210,375.296631 361.296295,375.140167 
	C375.863098,375.014496 387.423676,363.709381 387.944580,349.462830 
	C388.468964,335.121338 377.955078,323.166290 363.408752,321.749695 
	C359.777283,321.396027 356.099030,321.522705 351.459442,321.428070 
M130.499969,141.300446 
	C139.152145,141.297287 147.806015,141.402679 156.456131,141.267120 
	C171.905762,141.025040 183.611465,129.489944 183.690536,114.597435 
	C183.770416,99.553993 171.869034,87.857750 156.136780,87.759766 
	C138.666687,87.650955 121.195023,87.662537 103.724754,87.754845 
	C87.918152,87.838364 76.066101,99.342865 76.046082,114.414940 
	C76.026024,129.514145 87.812943,141.083298 103.543625,141.275467 
	C112.194542,141.381165 120.847771,141.298492 130.499969,141.300446 
M267.499969,141.304642 
	C275.641327,141.110779 283.936737,141.839691 291.888916,140.512421 
	C304.649200,138.382614 313.880554,125.169258 312.654907,112.633293 
	C311.292480,98.697983 300.772888,88.085564 287.205933,87.853409 
	C268.409393,87.531769 249.603241,87.741928 230.801437,87.800392 
	C228.832169,87.806511 226.807800,88.117508 224.905243,88.638550 
	C212.141724,92.133987 203.621017,104.625481 205.201920,117.377159 
	C206.878616,130.901611 217.483215,140.888382 231.060074,141.211334 
	C242.867432,141.492203 254.686203,141.292358 267.499969,141.304642 
M157.202881,209.227585 
	C162.882874,216.075089 170.145828,219.337158 179.065857,219.286911 
	C196.387650,219.189301 213.710526,219.292694 231.032562,219.220352 
	C233.672058,219.209335 236.399323,219.041580 238.932739,218.369003 
	C251.773880,214.959869 260.314728,202.531311 258.815308,189.729828 
	C257.214020,176.058243 246.373947,165.930008 232.532379,165.755371 
	C214.713165,165.530533 196.888947,165.732422 179.067123,165.676102 
	C168.068314,165.641357 159.669144,170.266083 154.548416,179.939316 
	C149.326096,189.804504 150.328537,199.511932 157.202881,209.227585 
M103.614693,243.625381 
	C100.982628,243.939896 98.260048,243.926590 95.733749,244.624161 
	C82.976898,248.146591 74.566795,260.669189 76.180550,273.448456 
	C77.878716,286.896118 88.650505,296.982117 102.162308,297.148712 
	C120.631142,297.376465 139.104965,297.229156 157.576431,297.170990 
	C159.547501,297.164795 161.571793,296.888336 163.478470,296.385162 
	C176.188477,293.030762 184.872162,280.860596 183.543076,268.408875 
	C182.022446,254.162552 171.610489,243.969543 157.502655,243.720856 
	C139.868332,243.409988 122.224594,243.631699 103.614693,243.625381 
M99.258102,321.841980 
	C85.994621,324.038086 76.534393,334.410950 76.053070,347.285645 
	C75.479256,362.634460 87.633415,375.214905 103.013870,375.192078 
	C118.183365,375.169556 130.314041,362.750336 129.892029,347.674591 
	C129.453751,332.017883 116.381844,320.649292 99.258102,321.841980 
M339.667023,98.227943 
	C338.851227,99.481262 337.933350,100.680481 337.235870,101.996513 
	C331.931793,112.004768 333.535980,124.285652 341.193787,132.650742 
	C348.933014,141.104782 361.350372,143.715851 371.851501,139.097275 
	C382.236908,134.529602 388.678497,123.934372 387.920258,112.667091 
	C387.204742,102.034706 380.011169,92.307129 369.821381,89.142487 
	C358.210266,85.536423 348.158203,88.363678 339.667023,98.227943 
z"/>
<path fill="#000000" opacity="1.000000" stroke="none" 
	d="
M1.000000,332.468658 
	C1.663937,333.303375 2.723330,334.546783 2.931484,335.919281 
	C5.384856,352.096008 6.652147,368.535614 10.307900,384.428436 
	C16.440104,411.087250 31.510303,431.839478 56.005497,444.900574 
	C69.625992,452.163177 84.466827,455.873566 99.676163,457.932007 
	C109.505692,459.262299 119.415901,459.991913 129.281647,461.066986 
	C130.157730,461.162445 130.972351,461.822083 131.907745,462.609863 
	C88.406357,463.000000 44.812717,463.000000 1.000000,463.000000 
	C1.000000,419.646027 1.000000,376.291656 1.000000,332.468658 
z"/>
<path fill="#000000" opacity="1.000000" stroke="none" 
	d="
M332.468658,463.000000 
	C333.303345,462.335938 334.546692,461.276276 335.919189,461.068085 
	C352.097931,458.614075 368.531403,457.320374 384.436188,453.695648 
	C411.134247,447.611145 431.832520,432.485840 444.895538,408.002808 
	C452.162506,394.382812 455.874298,379.539429 457.931885,364.327606 
	C459.261597,354.496826 459.991852,344.585571 461.066986,334.718658 
	C461.162445,333.842468 461.822021,333.027710 462.609802,332.092224 
	C463.000000,375.593628 463.000000,419.187286 463.000000,463.000000 
	C419.646027,463.000000 376.291656,463.000000 332.468658,463.000000 
z"/>
<path fill="#000000" opacity="1.000000" stroke="none" 
	d="
M463.000000,131.531342 
	C462.335876,130.696701 461.276093,129.453415 461.067902,128.080948 
	C458.614014,111.902122 457.366333,95.454391 453.690521,79.565727 
	C447.167908,51.372070 430.880768,30.022089 404.440704,17.304607 
	C389.791748,10.258549 373.960571,7.136028 357.955078,5.052699 
	C350.412842,4.070974 342.793335,3.691959 335.218262,2.943900 
	C334.178986,2.841265 333.194672,2.181785 332.092468,1.390058 
	C375.593628,1.000000 419.187286,1.000000 463.000000,1.000000 
	C463.000000,44.353981 463.000000,87.708336 463.000000,131.531342 
z"/>
<path fill="#000000" opacity="1.000000" stroke="none" 
	d="
M131.531342,0.999999 
	C130.696198,1.663940 129.452362,2.723250 128.079437,2.931505 
	C111.897598,5.386096 95.438675,6.609238 79.557037,10.316889 
	C51.416611,16.886415 29.940378,33.028847 17.313997,59.556259 
	C10.335362,74.218025 7.000899,89.997063 5.042728,106.040016 
	C4.120822,113.593033 3.692072,121.205414 2.943914,128.781418 
	C2.841267,129.820831 2.181800,130.805283 1.390066,131.907593 
	C1.000000,88.406357 1.000000,44.812717 1.000000,1.000000 
	C44.353981,1.000000 87.708336,1.000000 131.531342,0.999999 
z"/>
<path fill="#FEFEFE" opacity="1.000000" stroke="none" 
	d="
M337.000427,243.585556 
	C345.157745,243.586533 352.816742,243.483582 360.471985,243.610184 
	C376.240479,243.870956 387.999390,255.448700 387.954895,270.527832 
	C387.910492,285.592255 376.074249,297.117065 360.284668,297.218719 
	C342.806732,297.331268 325.326843,297.342102 307.849121,297.216431 
	C292.143707,297.103485 280.264465,285.373352 280.344421,270.337982 
	C280.423706,255.427444 292.054260,243.900421 307.536255,243.624680 
	C317.188171,243.452774 326.845490,243.588104 337.000427,243.585556 
z"/>
<path fill="#E2016D" opacity="1.000000" stroke="none" 
	d="
M351.950867,321.428345 
	C356.099030,321.522705 359.777283,321.396027 363.408752,321.749695 
	C377.955078,323.166290 388.468964,335.121338 387.944580,349.462830 
	C387.423676,363.709381 375.863098,375.014496 361.296295,375.140167 
	C343.159210,375.296631 325.018585,375.304138 306.881653,375.137573 
	C292.351562,375.004181 281.104675,363.893463 280.324463,349.318451 
	C279.586151,335.526917 290.277313,322.692657 304.557312,321.915558 
	C320.154022,321.066803 335.822327,321.534302 351.950867,321.428345 
z"/>
<path fill="#E2016D" opacity="1.000000" stroke="none" 
	d="
M129.999969,141.300598 
	C120.847771,141.298492 112.194542,141.381165 103.543625,141.275467 
	C87.812943,141.083298 76.026024,129.514145 76.046082,114.414940 
	C76.066101,99.342865 87.918152,87.838364 103.724754,87.754845 
	C121.195023,87.662537 138.666687,87.650955 156.136780,87.759766 
	C171.869034,87.857750 183.770416,99.553993 183.690536,114.597435 
	C183.611465,129.489944 171.905762,141.025040 156.456131,141.267120 
	C147.806015,141.402679 139.152145,141.297287 129.999969,141.300598 
z"/>
<path fill="#01A3EE" opacity="1.000000" stroke="none" 
	d="
M266.999939,141.304779 
	C254.686203,141.292358 242.867432,141.492203 231.060074,141.211334 
	C217.483215,140.888382 206.878616,130.901611 205.201920,117.377159 
	C203.621017,104.625481 212.141724,92.133987 224.905243,88.638550 
	C226.807800,88.117508 228.832169,87.806511 230.801437,87.800392 
	C249.603241,87.741928 268.409393,87.531769 287.205933,87.853409 
	C300.772888,88.085564 311.292480,98.697983 312.654907,112.633293 
	C313.880554,125.169258 304.649200,138.382614 291.888916,140.512421 
	C283.936737,141.839691 275.641327,141.110779 266.999939,141.304779 
z"/>
<path fill="#01A3EE" opacity="1.000000" stroke="none" 
	d="
M156.994965,208.929306 
	C150.328537,199.511932 149.326096,189.804504 154.548416,179.939316 
	C159.669144,170.266083 168.068314,165.641357 179.067123,165.676102 
	C196.888947,165.732422 214.713165,165.530533 232.532379,165.755371 
	C246.373947,165.930008 257.214020,176.058243 258.815308,189.729828 
	C260.314728,202.531311 251.773880,214.959869 238.932739,218.369003 
	C236.399323,219.041580 233.672058,219.209335 231.032562,219.220352 
	C213.710526,219.292694 196.387650,219.189301 179.065857,219.286911 
	C170.145828,219.337158 162.882874,216.075089 156.994965,208.929306 
z"/>
<path fill="#F38022" opacity="1.000000" stroke="none" 
	d="
M104.099808,243.624451 
	C122.224594,243.631699 139.868332,243.409988 157.502655,243.720856 
	C171.610489,243.969543 182.022446,254.162552 183.543076,268.408875 
	C184.872162,280.860596 176.188477,293.030762 163.478470,296.385162 
	C161.571793,296.888336 159.547501,297.164795 157.576431,297.170990 
	C139.104965,297.229156 120.631142,297.376465 102.162308,297.148712 
	C88.650505,296.982117 77.878716,286.896118 76.180550,273.448456 
	C74.566795,260.669189 82.976898,248.146591 95.733749,244.624161 
	C98.260048,243.926590 100.982628,243.939896 104.099808,243.624451 
z"/>
<path fill="#FDFDFD" opacity="1.000000" stroke="none" 
	d="
M99.670715,321.796021 
	C116.381844,320.649292 129.453751,332.017883 129.892029,347.674591 
	C130.314041,362.750336 118.183365,375.169556 103.013870,375.192078 
	C87.633415,375.214905 75.479256,362.634460 76.053070,347.285645 
	C76.534393,334.410950 85.994621,324.038086 99.670715,321.796021 
z"/>
<path fill="#FDFDFD" opacity="1.000000" stroke="none" 
	d="
M339.880066,97.937134 
	C348.158203,88.363678 358.210266,85.536423 369.821381,89.142487 
	C380.011169,92.307129 387.204742,102.034706 387.920258,112.667091 
	C388.678497,123.934372 382.236908,134.529602 371.851501,139.097275 
	C361.350372,143.715851 348.933014,141.104782 341.193787,132.650742 
	C333.535980,124.285652 331.931793,112.004768 337.235870,101.996513 
	C337.933350,100.680481 338.851227,99.481262 339.880066,97.937134 
z"/>
</svg>